<svg xmlns="http://www.w3.org/2000/svg" id="Layer_2" viewBox="0 0 780.4 969"><defs><style>.cls-1{fill:none;}.cls-2,.cls-3{fill:#fff;}.cls-4{fill:#304b69;}.cls-5{fill:#0a1f41;}.cls-3{opacity:.42;}</style></defs><g id="Layer_1-2"><g><polygon class="cls-1" points="668.08 260.15 668.09 260.14 668.09 194.6 640.84 179.51 640.82 179.51 668.08 194.6 668.08 260.15"></polygon><path class="cls-1" d="M69.07,607.42c16.87,45.69,37.81,85.76,61.13,120.79,.02,.03,.04,.06,.06,.1-.02-.04-.04-.07-.07-.11-23.32-35.03-44.26-75.09-61.13-120.78Z"></path><path class="cls-1" d="M381.47,936.63c2.99,1.29,5.92,2.55,8.73,3.71,2.14-.89,4.34-1.81,6.58-2.77-2.24,.96-4.44,1.88-6.57,2.77-2.82-1.16-5.75-2.41-8.74-3.71Z"></path><path class="cls-1" d="M259.72,865.4c26.57,20.14,52.61,36.35,76.33,49.17,1.48,.8,2.92,1.55,4.38,2.33-1.46-.77-2.91-1.53-4.39-2.33-23.7-12.8-49.74-29.03-76.32-49.16Z"></path><path class="cls-1" d="M439.74,917.02c-7.5,3.97-14.74,7.6-21.68,10.91,6.94-3.31,14.19-6.94,21.68-10.91Z"></path><polygon class="cls-1" points="735.27 196.07 753.61 178.58 753.72 178.48 753.59 178.59 735.26 196.08 742.43 206.59 735.27 196.08 735.27 196.07"></polygon><polygon class="cls-5" points="441.38 132.56 417.38 155.46 417.38 155.54 417.38 155.53 417.38 155.55 417.38 155.55 417.43 155.5 417.47 155.47 464.57 155.47 464.57 28.41 464.57 27.02 464.57 26.95 464.57 26.94 441.38 50.54 441.38 132.56"></polygon><path class="cls-5" d="M97.86,41.51c0,.8,.02,1.63,.06,2.48,0,.09,0,.17,.01,.26,.05,.87,.11,1.77,.21,2.7,1.12,12.05,5.88,28.74,22.01,41.43,2.12,1.84,4.48,3.56,7.04,5.16,.76,.48,1.6,.92,2.41,1.37,4.67,2.63,10.04,4.84,16.27,6.46,.44,.11,.84,.25,1.28,.36v-11.46c-40.23-13.02-48.53-58.28-48.65-58.98v.07c-.01,.08-.02,.18-.05,.3-.16,1-.68,4.64-.6,9.85Z"></path><polygon class="cls-5" points="753.61 178.58 735.27 196.07 735.27 196.08 742.43 206.59 747.06 213.37 753.23 222.42 753.91 223.42 753.91 178.31 753.72 178.48 753.61 178.58"></polygon><path class="cls-5" d="M420.91,296.37c-.11,.01-.21,.02-.31,.04-.96,.11-1.95,.2-2.95,.3-.21,.02-.42,.04-.63,.06-.91,.09-1.85,.17-2.79,.24-.31,.03-.61,.05-.92,.08-.87,.07-1.76,.13-2.65,.19-.4,.03-.79,.06-1.19,.08-.83,.05-1.68,.1-2.52,.14-.48,.03-.95,.05-1.44,.08-.79,.04-1.61,.06-2.42,.09-.55,.02-1.1,.04-1.66,.06-.77,.02-1.56,.04-2.34,.05-.62,.01-1.22,.03-1.85,.04-.77,0-1.55,0-2.33,.01-.66,0-1.3,0-1.97,0-.77,0-1.55-.02-2.33-.03-.69,0-1.38-.01-2.08-.03-.78-.02-1.58-.05-2.36-.07-.71-.02-1.42-.04-2.14-.07-.86-.04-1.73-.09-2.6-.13-.67-.03-1.33-.06-2-.1-1.02-.06-2.06-.14-3.09-.22-.53-.04-1.06-.07-1.6-.11-1.31-.1-2.63-.23-3.96-.36-.27-.03-.54-.05-.82-.07-3.24-.32-6.53-.72-9.87-1.2-53.17-7.6-77.28,14.93-83.02,29.18v0c.05-.12,.13-.27,.23-.43v-.02c.11-.18,.23-.38,.38-.6h0c.1-.16,.21-.31,.34-.48,3.71-4.89,18.95-17.03,76.59-9.05,3.77,.52,7.39,.9,10.92,1.18-.37,5.54,.27,12.8,4.61,18.64l.02,.02s-24.58-.05-35.88-13.13c0,0-1.06,28.85,40.87,29.84,45.11,1.07,79.05-60.62,79.05-60.62,0,0-12.71,4.12-33.31,6.4Z"></path><path class="cls-5" d="M668.09,260.16v-.02h-.01v-65.53l-27.26-15.09H26.5v171.63c0,100.69,16.36,185.29,42.57,256.28,16.87,45.69,37.81,85.75,61.13,120.78,.02,.04,.04,.07,.07,.11,.02,.03,.04,.06,.06,.09-.04-.07-.08-.13-.12-.2,14.84,22.28,30.63,42.54,46.94,60.93,20.7,23.34,42.22,43.68,63.64,61.37,6.33,5.23,12.64,10.15,18.93,14.91,26.58,20.13,52.62,36.36,76.32,49.16,1.48,.8,2.93,1.56,4.39,2.33,14.82,7.84,28.64,14.36,41.04,19.74,2.99,1.29,5.92,2.54,8.74,3.71,2.14-.88,4.34-1.81,6.57-2.77,6.68-2.86,13.81-6.07,21.27-9.64,6.94-3.31,14.18-6.94,21.68-10.91,1.54-.81,3.06-1.61,4.62-2.45,123.36-66.68,309.55-223.58,309.55-563.43v-108.99l-42.35-23.45-43.47,41.47Zm-153.14,551.07c-2.8,2.38-5.63,4.72-8.49,7.05-52.98-57.55-125.36-165.33-89.58-299.01,0,0-15.52,160.83,120.59,271.67-7.3,6.96-14.8,13.74-22.52,20.3Zm146.38-320.99c1.31-8.85,1.55-20.34-.96-32.72-5.16-25.43-21.97-54.6-65.12-72.42-50.2-20.73-88.98-17.46-106.8-13.99,10.38-9.62,9.49-23.59,9.49-23.59,0,0-12.99,11.81-31.21,15.35-14.1,2.74-30.09,1-36.61,.07,.02,.02,.05,.05,.07,.07l3.89,.68c-1.49-.2-2.75-.41-3.79-.59,14.59,13.48,33.51,14.14,37.72,14.11-.61,.27-1.29,.57-2.03,.91-116.75,45.66-105.98,140.79-105.98,140.79,0,0,3.56-7.84,9.48-19.41,15.49-25.63,52.47-71.91,122.38-84.04,75.58-13.12,124.21,20.9,142.95,39.83-27.09-24.52-72.27-38.27-122-33.58-66.54,6.25-129.15,57.15-157.79,126.19,0,0-27.85-34.28-22.1-78.49,0,0-59.91,52.16-53.79,163.29,0,0-41.78-40.01-44.26-85.06,0,0-28.37,60.42-19.71,145.83-10.15-29.52-17.54-67.9-15.29-115.32,4.91-104.07,67.25-167.37,89.96-187.08-6.75,10.95-17.59,33.87-18.59,69.17,0,0,35.51-67.34,89.31-92.82,0,0-48.78-1.66-55.96-38.14-.98,.7-1.92,1.43-2.87,2.17-23.7,18.31-44.28,41.3-61.74,65.5-32.3,44.79-53.62,97.15-59.98,152.11-9.44,81.58,15.02,159.54,51.31,231.7-.29-.36-.68-.81-1.14-1.38,.12,.24,.24,.46,.36,.7-21.83-22.1-41.61-46.02-59.06-71.5-54.66-79.88-87.26-175.75-97.29-285.71,18.71-56.76,46.27-103.01,85.95-131.45-35.48,1.3-50.67,16.47-50.67,16.47,0,0,14.18-51.04,79.39-73.71,35.43-12.33,82.56-9.59,118.24-4.51,26.03,2.09,42.56,6.16,60.14,9.65-53.6,5.67-85.7-1.05-85.7-1.05,0,0,17.25,9.59,62.28,12.46,30.12,1.92,68.38-2.16,90.42-5.07,4.49-.01,9.21-.11,14.25-.26,48.56-1.59,66.55,8.45,70.89,19.08-13.98,1.58-22.04,8.18-25.19,11.4,13.52-3.23,29.75-5.92,43.97-5.24,29.68,1.39,24.29,16.71,24.29,16.71-7.47,.28-12.71,2.08-16.34,4.14,74.07,.45,134.61,56.6,136.1,127.19,.55,26.24-7.18,50.82-20.86,71.57Z"></path><path class="cls-5" d="M520.61,302.19c1.26-1.24,2.49-2.36,3.66-3.36-1.18,1-2.41,2.12-3.66,3.36h0Z"></path><path class="cls-5" d="M534.36,291.98h-.07s.07,0,.07,0h0Z"></path><rect class="cls-2" x="524.88" y="72.61" width="36.41" height="37.2"></rect><path class="cls-2" d="M546.1,291.49c3.63-2.07,8.87-3.87,16.34-4.14,0,0,5.39-15.32-24.29-16.71-14.22-.68-30.45,2.01-43.97,5.24,3.15-3.22,11.21-9.82,25.19-11.4-4.34-10.63-22.33-20.67-70.89-19.08-5.03,.16-9.76,.25-14.25,.26-22.04,2.91-60.3,6.99-90.42,5.07-45.03-2.87-62.28-12.46-62.28-12.46,0,0,32.09,6.71,85.7,1.05-17.58-3.49-34.12-7.56-60.14-9.65-35.68-5.07-82.81-7.81-118.24,4.51-65.22,22.68-79.39,73.71-79.39,73.71,0,0,15.19-15.17,50.67-16.47-39.68,28.44-67.24,74.69-85.95,131.45,10.04,109.96,42.63,205.82,97.29,285.71,17.45,25.48,37.23,49.41,59.06,71.5-.12-.24-.24-.46-.36-.7,.46,.57,.85,1.02,1.14,1.38-36.3-72.16-60.75-150.12-51.31-231.7,6.36-54.96,27.68-107.32,59.98-152.11,17.46-24.21,38.04-47.19,61.74-65.5,.95-.73,1.9-1.47,2.87-2.17,7.18,36.48,55.96,38.14,55.96,38.14-53.8,25.49-89.31,92.82-89.31,92.82,.99-35.31,11.84-58.22,18.59-69.17-22.7,19.71-85.05,83.01-89.96,187.08-2.25,47.42,5.14,85.8,15.29,115.32-8.66-85.4,19.71-145.83,19.71-145.83,2.48,45.05,44.26,85.06,44.26,85.06-6.12-111.13,53.79-163.29,53.79-163.29-5.76,44.22,22.1,78.49,22.1,78.49,28.65-69.04,91.26-119.94,157.79-126.19,49.73-4.68,94.91,9.06,122,33.58-18.74-18.93-67.37-52.95-142.95-39.83-69.91,12.13-106.88,58.41-122.38,84.04-5.92,11.57-9.48,19.41-9.48,19.41,0,0-10.76-95.13,105.98-140.79,.75-.34,1.42-.64,2.03-.91-4.21,.03-23.14-.63-37.72-14.11-.03-.03-.07-.06-.1-.1-.02-.02-.05-.05-.07-.07-.12-.11-.24-.24-.37-.35,7.9,.15,25.09-.63,39.63-8.88,18.61-10.56,24.94-30.15,35.59-43.88,.45-.53,.9-1.05,1.36-1.56,.5-.65,1-1.27,1.5-1.87,1.33-1.46,2.74-2.82,4.25-4.06,6.87-5.65,12.63-8.33,16.93-9.56,1.78-.44,3.21-.65,4.15-.74,.04,0,.09,0,.13-.01,.03,0,.05,0,.08,0,.16-.01,.3-.03,.42-.03,.06,0,.1,0,.14,0,.06,0,.12,0,.17-.01,.04,0,.07,0,.1,0h.16s-4.41,2.04-10.09,6.85c-1.18,1-2.41,2.12-3.66,3.36,8.74-.38,70.24-1.5,113.11,39.29,35.06,33.36,34.49,76.42,30.49,100.16-.06,.35-.12,.69-.18,1.03-.16,.91-.32,1.78-.49,2.63-.12,.6-.24,1.2-.37,1.8-1.03,4.81-2.1,8.42-2.79,10.42,2.51,12.38,2.27,23.86,.96,32.72,13.68-20.75,21.41-45.33,20.86-71.57-1.48-70.59-62.02-126.74-136.1-127.19Zm-170.93,59.11c-41.93-.99-40.87-29.84-40.87-29.84,11.3,13.09,35.88,13.13,35.88,13.13l-.02-.02c-4.34-5.85-4.98-13.1-4.61-18.64-3.53-.29-7.15-.66-10.92-1.18-57.64-7.98-72.88,4.16-76.59,9.05-.13,.17-.24,.32-.34,.47h0c-.15,.23-.27,.43-.37,.6v.02c-.1,.17-.18,.32-.24,.43v0c5.74-14.25,29.85-36.77,83.02-29.18,3.34,.48,6.64,.87,9.87,1.2,.28,.03,.54,.05,.82,.07,1.33,.13,2.65,.25,3.96,.36,.54,.04,1.06,.07,1.6,.11,1.03,.08,2.07,.15,3.09,.22,.67,.04,1.33,.07,2,.1,.87,.05,1.74,.1,2.6,.13,.72,.03,1.43,.05,2.14,.07,.79,.03,1.58,.06,2.36,.07,.7,.02,1.38,.02,2.08,.03,.78,.01,1.56,.03,2.33,.03,.66,0,1.31,0,1.97,0,.78,0,1.56,0,2.33-.01,.62,0,1.23-.03,1.85-.04,.78-.02,1.57-.03,2.34-.05,.56-.02,1.11-.04,1.66-.06,.81-.03,1.62-.06,2.42-.09,.48-.02,.96-.05,1.44-.08,.85-.04,1.69-.09,2.52-.14,.4-.03,.79-.06,1.19-.08,.89-.06,1.78-.12,2.65-.19,.31-.02,.61-.05,.92-.08,.94-.08,1.88-.16,2.79-.24,.21-.02,.42-.04,.63-.06,1-.1,1.99-.2,2.95-.3,.11-.01,.21-.02,.31-.04,20.6-2.28,33.31-6.4,33.31-6.4,0,0-33.94,61.69-79.05,60.62Zm127.08-51.19c-10.66,10.11-13.6,22.61-23.89,35.47-12.79,15.99-27.89,13.93-27.89,13.93,0,0,.14-.06,.39-.16,1.34-.6,6.17-3.11,12.64-10.47-.99-.1-1.97-.4-2.84-1-.8-.55-1.51-1.35-2.04-2.5-.19-.41-.34-.86-.45-1.34-1.66-7.24,5.35-22.31,18.56-29.85,2.06-1.18,3.8-1.98,5.25-2.46,1.09-.36,2.01-.54,2.78-.56,2.2-.06,3.19,1.17,3.3,3.12,12.76-12.71,24.24-11.81,24.24-11.81,0,0-3.51,1.43-10.05,7.63Z"></path><path class="cls-5" d="M434.08,363.7l-3.89-.68s.07,.06,.1,.1c1.04,.18,2.3,.39,3.79,.59Z"></path><path class="cls-3" d="M434.08,363.7l-3.89-.68s.07,.06,.1,.1c1.04,.18,2.3,.39,3.79,.59Z"></path><path class="cls-2" d="M416.89,519.27c-35.78,133.69,36.6,241.46,89.58,299.01,2.85-2.32,5.69-4.67,8.49-7.05,7.72-6.56,15.22-13.33,22.52-20.3-136.11-110.84-120.59-271.67-120.59-271.67Z"></path><path class="cls-5" d="M488.06,303.59c-.11-1.95-1.09-3.18-3.3-3.12-.77,.02-1.7,.2-2.78,.56-1.45,.48-3.19,1.28-5.25,2.46-13.21,7.55-20.22,22.61-18.56,29.85,.11,.48,.26,.93,.45,1.34,.53,1.15,1.24,1.95,2.04,2.5,.87,.6,1.85,.9,2.84,1-6.47,7.36-11.3,9.86-12.64,10.47-.25,.11-.39,.16-.39,.16,0,0,15.1,2.05,27.89-13.93,10.29-12.87,13.23-25.36,23.89-35.47,6.54-6.2,10.05-7.63,10.05-7.63,0,0-11.48-.9-24.24,11.81Z"></path><path class="cls-4" d="M663.54,445.31c.17-.84,.33-1.72,.49-2.63,.06-.34,.12-.69,.18-1.03,4-23.74,4.58-66.8-30.49-100.16-42.88-40.79-104.37-39.67-113.11-39.29h0c1.26-1.24,2.49-2.36,3.66-3.36,5.67-4.81,10.09-6.86,10.09-6.86h0s-.03,0-.07,0h-.09s-.06,0-.1,0c-.05,0-.11,0-.17,.01-.05,0-.09,0-.14,0-.12,0-.26,.02-.42,.03-.03,0-.05,0-.08,0-.04,0-.09,0-.13,.01-.93,.09-2.36,.3-4.15,.74-4.31,1.23-10.06,3.91-16.93,9.56-1.51,1.24-2.92,2.6-4.25,4.06-.51,.6-1.01,1.22-1.5,1.87-.46,.51-.91,1.03-1.36,1.56-10.64,13.72-16.97,33.32-35.59,43.88-14.54,8.25-31.73,9.02-39.63,8.88,.12,.12,.24,.24,.37,.35,6.52,.93,22.52,2.67,36.61-.07,18.22-3.54,31.21-15.35,31.21-15.35,0,0,.89,13.97-9.49,23.59,17.82-3.47,56.6-6.74,106.8,13.99,43.15,17.82,59.96,47,65.12,72.42,.69-2,1.76-5.6,2.79-10.42,.13-.6,.25-1.2,.37-1.8Z"></path><path class="cls-2" d="M588.15,0H0V351.14c0,36.83,2.21,72.43,6.45,106.81,13.71,111.01,49.41,209.05,106.74,292.35,29.62,43.03,65.04,82.05,105.35,116.11,32.18,27.18,67.44,51.19,104.91,71.44,18.65,10.05,37.7,19.13,56.68,26.94l10.09,4.2,10.13-4.2c18.97-7.8,38.02-16.89,56.63-26.94,37.46-20.25,72.77-44.27,104.91-71.44,40.31-34.06,75.77-73.09,105.35-116.11,75.09-109.11,113.19-243.43,113.19-399.17V0h-192.25Zm-110.5,54.19l18.49-27.26h93.86l11.17,16.45,4.07,6,3.26,4.79h0V127.92h0v.02l-10.95,16.13-7.73,11.4h0v.02h-93.42l-16.23-23.89-1.73-2.54-.76-1.12V54.19Zm-60.32-27.26h47.23v1.48h0v127.06h-47.1l-.04,.03-.05,.05h0v-.02h0v-.08h-.04V26.94Zm-144.81,27.26l18.49-27.26h82.39l1.12,1.65,14.64,21.55,14.8,21.8,.2,.3h0v.34h-80.98v.02h-2.63v37.2h36.41l-.58-.85-3.57-5.21-11.29-16.61h.02v-.02h62.62v40.82l-18.71,27.54h-94.21l-13.69-20.14-4.26-6.27-.78-1.14V54.19ZM98.45,31.67c.02-.13,.03-.23,.04-.3v-.09h.01s.06,.11,.09,.16c.12,.21,.26,.48,.42,.7,.98,1.51,2.05,2.96,3.15,4.38,4.03,5.18,8.81,9.84,14.15,14.02,2.09,1.63,4.31,3.14,6.55,4.63,2.01,1.34,4.09,2.6,6.2,3.83,1.51,.88,2.98,1.82,4.54,2.64,.36,.19,.73,.35,1.09,.54,3.15,1.61,6.37,3.11,9.65,4.54,.94,.41,1.86,.84,2.81,1.23V26.95h110.53v45.66h-63.32v8.75c3.38,.63,6.64,1.17,9.82,1.67,.82,.13,1.66,.26,2.46,.39,3.61,.54,7.02,.98,10.25,1.37h.08c1.99,.25,3.9,.46,5.72,.64,1.59,.16,3.08,.3,4.51,.43,.17,.02,.37,.04,.54,.05,3.18,.28,5.96,.48,8.24,.62,.25,.01,.53,.03,.76,.05,.1,0,.2,0,.3,.02,.14,0,.27,.01,.41,.02,.32,.02,.66,.03,.98,.04,1.52,.07,3.04,.13,4.59,.2h.02s-14.34,11.35-39.49,16.42c-2.93,.59-5.97,1.12-9.19,1.51v5.02h63.32v45.66h-110.53v-53.73c-.45-.11-.85-.25-1.28-.36-6.23-1.62-11.6-3.83-16.27-6.46-.81-.46-1.65-.9-2.42-1.38-2.56-1.6-4.91-3.31-7.03-5.14-16.13-12.7-20.91-29.39-22.03-41.43-.09-.94-.15-1.85-.19-2.72,0-.09,0-.17-.01-.26-.04-.86-.06-1.7-.08-2.49-.08-5.2,.45-8.85,.61-9.83ZM26.86,27.02h47.23V109.87h33.86v.02h0l2.36,3.48,1.08,1.58,4.21,6.21,7.61,11.21,7.76,11.41,8,11.75H26.86V27.02ZM753.91,351.14c0,339.85-186.2,496.75-309.55,563.43-1.56,.84-3.08,1.64-4.62,2.45-7.5,3.97-14.74,7.6-21.68,10.91-7.46,3.56-14.59,6.77-21.27,9.64-2.24,.96-4.44,1.89-6.58,2.77-2.81-1.17-5.75-2.42-8.73-3.71-12.4-5.38-26.23-11.9-41.04-19.74-1.46-.77-2.9-1.53-4.38-2.33-23.72-12.82-49.76-29.03-76.33-49.17-6.29-4.77-12.6-9.69-18.93-14.91-21.42-17.69-42.95-38.03-63.64-61.37-16.3-18.39-32.1-38.64-46.94-60.93,.04,.07,.08,.13,.12,.2-.02-.03-.04-.06-.06-.09-.02-.03-.04-.06-.06-.1-23.32-35.03-44.26-75.1-61.13-120.79-26.21-70.99-42.57-155.59-42.57-256.28V179.51H640.84l27.26,15.09v65.56l43.47-41.47,42.35,23.45v108.99Zm0-127.72l-.68-1-6.16-9.05-4.63-6.79-7.17-10.5,18.33-17.49,.13-.12,.19-.16v45.11Zm0-67.95h-46.76l-.46-.68-17.26-25.41-17.25-25.4-1.3-1.91-2.23-3.28v56.66h-.01v.02h-47.21v-.02h0V26.94h46.27l.14,.21,.75,1.1,20.89,29.45,17.2,24.25h0V26.94h47.23V155.47Z"></path><polygon class="cls-5" points="50.52 132.38 26.87 155.55 138.97 155.55 138.96 155.54 130.97 143.78 123.21 132.37 50.52 132.37 50.52 132.38"></polygon><polygon class="cls-5" points="74.08 109.89 74.08 27.03 50.52 50.14 50.52 132.37 74.08 109.89 107.95 109.89 107.95 109.89 107.95 109.89 74.08 109.89"></polygon><polygon class="cls-5" points="730.5 115.54 730.5 132.38 645.54 49.56 645.54 132.37 621.43 155.46 621.43 155.42 621.43 26.95 667.66 26.95 668.59 28.25 667.84 27.15 667.7 26.95 667.7 26.95 621.43 26.95 621.43 155.46 621.43 155.47 621.43 155.47 621.43 155.47 668.64 155.47 668.64 155.46 668.64 98.77 668.65 98.79 670.88 102.07 672.19 104 689.43 129.38 706.69 154.79 707.15 155.47 707.15 155.47 707.15 155.47 753.91 155.47 753.91 155.47 753.91 26.95 730.5 50.14 730.5 115.54"></polygon><polygon class="cls-5" points="379.78 132.38 296.2 132.37 291.32 155.2 291.29 155.35 291.26 155.47 292.06 155.47 384.35 155.47 385.47 155.47 404.18 127.94 404.18 87.12 379.78 96.59 379.78 132.38"></polygon><polygon class="cls-5" points="296.2 132.37 320.56 109.81 356.97 109.81 379.78 96.59 341.55 87.12 403.05 87.12 403.05 87.12 404.18 87.12 404.18 87.12 403.05 87.12 341.54 87.12 341.56 87.13 352.84 103.74 356.39 108.96 356.97 109.81 355.84 109.81 320.56 109.81 320.56 72.61 322.07 72.61 323.2 72.61 323.2 72.6 323.2 72.58 323.2 72.58 403.05 72.58 404.18 72.58 404.18 72.25 404.17 72.25 403.97 71.95 389.17 50.14 296.2 50.14 296.2 132.37"></polygon><polygon class="cls-5" points="590 26.95 584.9 50.14 584.9 132.38 501.33 132.37 496.38 155.47 589.79 155.47 589.8 155.46 597.54 144.06 608.5 127.94 608.5 127.92 608.5 54.19 608.5 54.18 608.49 54.18 608.49 54.18 605.24 49.39 601.18 43.4 590 26.95"></polygon><polygon class="cls-5" points="501.33 132.37 524.88 109.81 524.88 72.61 561.29 72.61 584.9 50.14 501.33 50.14 501.33 132.37"></polygon><path class="cls-5" d="M169.82,50.14v25.52c8.38,2.36,16.69,4.22,24.55,5.69v-8.75h63.32V26.95l-22.63,23.19h-65.23Z"></path><polygon class="cls-5" points="169.82 132.38 147.16 155.47 257.69 155.47 257.69 109.81 235.31 132.38 169.82 132.38"></polygon><path class="cls-5" d="M157.48,92.78c1.72,1.06,6.54,3.82,12.34,5.35v34.25l24.55-22.57h0v-5.03h0c3.22-.4,6.26-.92,9.19-1.51,25.15-5.06,39.49-16.41,39.49-16.41h0s-41.12,16.06-85.56,5.91Z"></path><polygon class="cls-4" points="50.52 132.37 50.52 50.14 74.08 27.03 74.08 27.03 74.08 27.03 74.08 27.03 26.87 27.03 26.87 155.55 50.52 132.38 50.52 132.37 123.21 132.37 115.6 121.16 111.37 114.94 110.31 113.37 107.95 109.89 74.08 109.89 50.52 132.37"></polygon><polygon class="cls-4" points="501.33 50.14 584.9 50.14 590 26.95 590 26.95 496.16 26.95 477.67 54.18 477.67 127.93 477.67 127.94 478.42 129.04 480.15 131.58 496.37 155.47 496.38 155.47 501.33 132.37 501.33 50.14"></polygon><polygon class="cls-4" points="291.04 26.95 272.54 54.18 272.54 127.93 272.54 127.94 273.31 129.06 277.57 135.33 291.26 155.47 291.26 155.47 291.29 155.35 291.31 155.24 291.45 154.59 291.45 154.58 296.2 132.37 296.2 50.14 389.17 50.14 374.53 28.59 373.41 26.95 373.4 26.95 372.29 26.95 372.28 26.95 291.85 26.95 291.04 26.95"></polygon><polygon class="cls-4" points="561.29 109.81 524.88 109.81 501.33 132.37 584.9 132.38 584.9 50.14 561.29 72.61 561.29 109.81"></polygon><polygon class="cls-4" points="753.91 26.95 753.91 26.95 706.69 26.95 706.69 81.97 706.68 81.96 689.48 57.71 668.59 28.25 667.66 26.95 621.43 26.95 621.43 155.42 621.43 155.46 645.54 132.37 645.54 49.56 730.5 132.38 730.5 115.54 730.5 50.14 753.91 26.95 753.91 26.95 753.91 26.95"></polygon><polygon class="cls-4" points="169.82 132.38 235.31 132.38 257.69 109.81 257.69 109.81 194.37 109.81 169.82 132.38"></polygon><polygon class="cls-4" points="379.78 96.59 356.97 109.81 320.56 109.81 296.2 132.37 379.78 132.38 379.78 96.59"></polygon><polygon class="cls-4" points="403.05 87.12 341.55 87.12 379.78 96.59 404.18 87.12 404.18 87.12 403.05 87.12 403.05 87.12"></polygon><polygon class="cls-4" points="441.38 132.56 441.38 50.54 464.57 26.94 417.34 26.94 417.38 155.46 441.38 132.56"></polygon><path class="cls-4" d="M147.16,90.28v65.19h0l22.66-23.09v-34.25c-5.8-1.53-10.62-4.29-12.34-5.35,44.44,10.15,85.56-5.91,85.56-5.91,0,0-2.29-.05-6.31-.28-2.4-.14-5.46-.36-8.99-.67-.17-.02-.37-.04-.54-.05-1.43-.13-2.92-.27-4.51-.43-1.82-.19-3.72-.4-5.72-.63h-.08c-1.6-.2-3.26-.41-4.96-.63h-.01c-1.71-.23-3.48-.48-5.29-.75-.8-.12-1.64-.26-2.45-.39-3.18-.5-6.44-1.04-9.82-1.67-7.86-1.47-16.17-3.34-24.55-5.69v-25.52h65.23l22.63-23.19h-110.53v41.01c-.94-.39-1.87-.83-2.81-1.24-3.27-1.43-6.49-2.93-9.65-4.54-.36-.18-.74-.35-1.1-.54-1.56-.82-3.02-1.76-4.53-2.64-2.11-1.23-4.19-2.48-6.2-3.83-2.24-1.49-4.46-3-6.56-4.62-5.34-4.18-10.13-8.84-14.14-14.03-1.1-1.43-2.18-2.87-3.15-4.38-.16-.22-.3-.49-.42-.7-.03-.05-.07-.12-.09-.16v.02c.12,.71,8.42,45.96,48.65,58.98Zm3.25,.98h0c-.03,.1-.06,.07-.1-.03,.03,0,.07,.02,.1,.03Z"></path></g></g></svg>